<svg id="svg" xmlns="http://www.w3.org/2000/svg" version="1.1" viewBox="0 0 432 432">
  <!-- Generator: Adobe Illustrator 29.1.0, SVG Export Plug-In . SVG Version: 2.1.0 Build 142)  -->
  <defs>
    <style>
      .st0 {
        fill: #363639;
        stroke: #fff;
      }

      .st0, .st1, .st2 {
        stroke-miterlimit: 10;
      }

      .st3 {
        font-family: LucidaGrande-Bold, 'Lucida Grande';
        font-size: 60px;
        font-weight: 700;
      }

      .st1 {
        fill: #fff;
      }

      .st1, .st2 {
        stroke: #000;
      }

      .st2 {
        fill: #606060;
      }

      .st4 {
        fill: #cdcfd0;
      }
    </style>
  </defs>
  <circle class="st2" cx="216" cy="216" r="204.4"/>
  <circle class="st0" cx="216" cy="216" r="156.6"/>
  <circle class="st1" cx="215.7" cy="123.7" r="57.6"/>
  <circle class="st1" cx="215.7" cy="307.1" r="58.1"/>
  <circle class="st1" cx="307.2" cy="215.5" r="58"/>
  <circle class="st1" cx="124.3" cy="215.5" r="58.2"/>
  <circle class="st1" cx="215" cy="216.8" r="16.7"/>
  <circle class="st4" cx="215" cy="36.7" r="18.9"/>
  <circle class="st4" cx="396.7" cy="217.7" r="18.9"/>
  <circle class="st4" cx="215.7" cy="397.5" r="18.9"/>
  <circle class="st4" cx="35.7" cy="216.8" r="18.9"/>
  <circle class="st4" cx="261.8" cy="42.5" r="18.9"/>
  <circle class="st4" cx="390.4" cy="264.4" r="18.9"/>
  <circle class="st4" cx="169" cy="391.2" r="18.9"/>
  <circle class="st4" cx="41.9" cy="170.1" r="18.9"/>
  <circle class="st4" cx="305.3" cy="60.3" r="18.9"/>
  <circle class="st4" cx="372.1" cy="307.8" r="18.9"/>
  <circle class="st4" cx="125.5" cy="373" r="18.9"/>
  <circle class="st4" cx="60" cy="126.6" r="18.9"/>
  <circle class="st4" cx="342.8" cy="88.7" r="18.9"/>
  <circle class="st4" cx="343.2" cy="345.1" r="18.9"/>
  <circle class="st4" cx="88.1" cy="344.3" r="18.9"/>
  <circle class="st4" cx="88.6" cy="89.3" r="18.9"/>
  <circle class="st4" cx="371.6" cy="126" r="18.9"/>
  <circle class="st4" cx="305.7" cy="373.8" r="18.9"/>
  <circle class="st4" cx="59.5" cy="306.9" r="18.9"/>
  <circle class="st4" cx="125.9" cy="60.8" r="18.9"/>
  <circle class="st4" cx="389.9" cy="169.5" r="18.9"/>
  <circle class="st4" cx="262.1" cy="391.8" r="18.9"/>
  <circle class="st4" cx="41.6" cy="263.5" r="18.9"/>
  <circle class="st4" cx="169.5" cy="42.9" r="18.9"/>
  <text class="st3" transform="translate(192.2 145.6)"><tspan x="0" y="0">H</tspan></text>
  <text class="st3" transform="translate(286.4 236.6)"><tspan x="0" y="0">O</tspan></text>
  <text class="st3" transform="translate(192.2 326.8)"><tspan x="0" y="0">M</tspan></text>
  <text class="st3" transform="translate(102 236.6)"><tspan x="0" y="0">E</tspan></text>
</svg>